<?xml version="1.0" standalone="no"?>
<!DOCTYPE svg PUBLIC "-//W3C//DTD SVG 20010904//EN"
 "http://www.w3.org/TR/2001/REC-SVG-20010904/DTD/svg10.dtd">
<svg version="1.0" xmlns="http://www.w3.org/2000/svg"
 width="186.000000pt" height="222.000000pt" viewBox="0 0 186.000000 222.000000"
 preserveAspectRatio="xMidYMid meet">
<metadata>
Created by potrace 1.16, written by Peter Selinger 2001-2019
</metadata>
<g transform="translate(0.000000,222.000000) scale(0.100000,-0.100000)"
fill="#000000" stroke="none">
<path d="M675 2045 c-14 -13 -25 -34 -25 -46 0 -12 16 -76 36 -143 20 -67 38
-138 40 -159 5 -47 18 -73 48 -92 20 -13 240 -46 397 -59 20 -2 42 -7 48 -10
6 -4 15 -5 20 -2 4 3 46 -1 92 -9 153 -27 169 -22 169 52 0 38 -73 302 -93
335 -18 30 -70 52 -202 86 -162 42 -341 72 -431 72 -66 0 -78 -3 -99 -25z"/>
<path d="M488 1806 c-60 -95 -108 -179 -108 -188 0 -8 12 -43 26 -79 65 -159
84 -175 204 -165 41 3 131 11 199 17 87 7 135 16 162 29 21 11 54 20 73 20 30
0 35 -4 38 -26 3 -22 13 -30 68 -51 36 -14 74 -27 85 -30 26 -6 193 77 225
113 18 19 20 25 8 21 -9 -3 -82 5 -162 19 -80 13 -232 35 -336 48 -196 25
-225 34 -255 79 -8 13 -36 97 -61 188 -25 90 -49 167 -53 170 -3 4 -54 -71
-113 -165z"/>
<path d="M311 1433 c-34 -36 -64 -76 -67 -87 -3 -12 -4 -61 -2 -111 l3 -90 39
70 c22 39 62 94 90 123 l50 53 -19 54 c-10 30 -22 55 -26 55 -4 0 -35 -30 -68
-67z"/>
<path d="M406 1299 c-30 -32 -69 -89 -95 -141 l-44 -87 7 -104 c24 -374 245
-607 576 -607 101 0 181 19 262 62 65 34 148 103 148 121 -1 7 -28 41 -60 76
l-59 63 -43 -36 c-71 -61 -139 -89 -216 -89 -85 0 -137 15 -198 56 -68 45
-120 118 -150 212 -23 68 -27 99 -27 200 -1 124 13 197 53 275 17 33 17 36 2
36 -10 0 -37 4 -60 8 -43 8 -44 7 -96 -45z"/>
</g>
</svg>
